<svg width="22" height="14" viewBox="0 0 22 14" xmlns="http://www.w3.org/2000/svg" xmlns:xlink="http://www.w3.org/1999/xlink"><defs><path id="a" d="M.4110049 5.01653371l-.39989666 1.8068601L8.63110307 11.404102l.39989667-1.83863908-6.96486696-3.53654277 9.46422112-4.00414727L11.9746835 0z"/><linearGradient x1="-.25470752%" y1="49.3881369%" x2="99.6215042%" y2="49.3881369%" id="b"><stop stop-color="#AD935C" offset="0%"/><stop stop-color="#D0B878" offset="40%"/><stop stop-color="#D0B878" offset="70%"/><stop stop-color="#D0B878" offset="100%"/></linearGradient><path id="d" d="M3.35468871.01588947l-.40433996 1.83863906 6.95820201 3.53427284L.44432963 9.39067871 0 11.4177215l11.5636786-5.01653369.3998967-1.80913003z"/><linearGradient x1="-.7532863%" y1="51.0222974%" x2="99.1043817%" y2="51.0222974%" id="e"><stop stop-color="#D0B878" offset="0%"/><stop stop-color="#D0B878" offset="40%"/><stop stop-color="#AD935C" offset="100%"/><stop stop-color="#AD935C" offset="100%"/></linearGradient><path id="g" d="M.4110049 4.90718701L.01110825 6.67466252l2.05280289-.77715632 9.46644277-3.91686782L11.9746835 0z"/><linearGradient x1="-2727.50051%" y1="12434.3248%" x2="-2694.06749%" y2="12445.2341%" id="h"><stop stop-color="#D0B878" offset="0%"/><stop stop-color="#D0B878" offset="40%"/><stop stop-color="#AD935C" offset="100%"/><stop stop-color="#AD935C" offset="100%"/></linearGradient><path id="j" d="M9.90855076.7860381L.44432963 4.70068548 0 6.6835443l11.5636786-4.90718701.3998967-1.76969595z"/><linearGradient x1="2845.7481%" y1="-12411.5025%" x2="2812.31507%" y2="-12422.408%" id="k"><stop stop-color="#D0B878" offset="0%"/><stop stop-color="#D0B878" offset="40%"/><stop stop-color="#AD935C" offset="100%"/><stop stop-color="#AD935C" offset="100%"/></linearGradient></defs><g fill="none" fill-rule="evenodd"><mask id="c" fill="#fff"><use xlink:href="#a"/></mask><path fill="url(#b)" mask="url(#c)" d="M.01110824 0H11.9746835v11.404102H.01332989z"/><g transform="translate(10.025316 1.670886)"><mask id="f" fill="#fff"><use xlink:href="#d"/></mask><path fill="url(#e)" mask="url(#f)" d="M0 .01588947h11.965797V11.4177215H0z"/></g><mask id="i" fill="#fff"><use xlink:href="#g"/></mask><path fill="url(#h)" mask="url(#i)" d="M.82200982-3.01314605L13.6631361.45519155l-2.5037974 9.23261702-12.83223976-3.47055805"/><g transform="translate(10.025316 6.405063)"><mask id="l" fill="#fff"><use xlink:href="#j"/></mask><path fill="url(#k)" mask="url(#l)" d="M11.1526737 9.69669036L-1.6884526 6.22835275.81090158-3.00870516 13.6475846.46629379"/></g><path d="M10.0475301 13.030072c.0369244-.0402779.0692332-.0895065.0876954-.1387351.4384768-1.1591089.8723381-2.3226931 1.3085072-3.48627736.3992447-1.0651271.7984894-2.13025421 1.1954264-3.19985664.0576943-.15663634.1246197-.30879736.1615441-.46990902.0161544-.07384285.0115388-.13873504-.0138467-.19243893-.0553865-.10069479-.1476974-.13873505-.2584705-.1297844-.0807721.00671299-.1615441.02685195-.2423162.05146623-.1684674.05594155-.3369348.1118831-.5030945.17229997l-.6115598.21481555c-.0230777.00671299-.0461554.01118831-.0623099.01118831l.173083-.85031155.2769328-1.35826083c.2307773-1.10764269.456939-2.21528537.6831007-3.32292806.0138467-.06712986.0138467-.1409727 0-.2058649-.030001-.11859608-.1569285-.16334932-.253855-.08950648-.0600021.04027792-.1061575.10293245-.1292353.16558699l-1.4538969 3.87115524-.3923214 1.08974139c-.0115388.02237662-.01846216.03804025-.0230777.05594155l-.69233187 1.83488283c-.03923214.1118831-.06923319.22824152-.10154201.34236229-.00923109.03580259-.00692332.07831817 0 .1118831l.02307773.06712986c.05538655.08279349.1615441.12754673.29539493.11188309.09231092-.02237662.18462183-.04922856.27693275-.07831817l.23539287-.08055583.1615441-.05594155.50771-.17901296.0576943-.01566363.0300011-.00895065.0230777-.00895065c.0415399-.01118831.0646176.00895065.0623099.04922857 0 .0290896-.0069234.05817921-.0115389.08950648-.253855 1.23518942-.50771 2.4726165-.7661806 3.71004356l-.33001152 1.6066413c-.01384664.0671299-.02307773.1342597-.01384664.2058649.00923109.0671299.0346166.1342597.10846533.1566364.07846428.0290896.13846637 0 .18462183-.0514663" fill="#D0B878"/></g></svg>