<svg xmlns="http://www.w3.org/2000/svg" viewBox="0 0 1000 1000"><path d="M500 15.3c-274.5 0-497 222.5-497 497C3 731.4 145.5 917.8 343 983.8c25.2 4.4 34-11 34-24.2l-.6-84.6C238 905.2 209 808.6 209 808.6 186 751.3 153.5 736 153.5 736c-45-31 3.5-30.3 3.5-30.3 50 3.5 76.2 51.2 76.2 51.2 44.6 76 116.5 54.2 144.6 41.4 4.5-32.2 17.5-54 31.6-66.6C298.7 719.8 183 677 183 486.6c0-54.3 19.4-98.6 51-133.3-5-12.6-22-63.3 5-131.6 0 0 41.6-13.6 136.5 51 39.6-11.2 82-16.6 124.2-16.8 42.3 0 84.8 5.7 124.2 16.6 95-64 136.5-51 136.5-51 27.2 68.4 10 119 5 131.5 31.8 34.6 51 79 51 133.3 0 190.8-116 233-227 245 18 15.2 34 45.7 34 92 0 66.5-.7 120-.7 136.4 0 13.2 9 28.7 34.2 24 197.4-66 339.7-252.4 339.7-471.8C997 237.7 774.5 15.2 500 15.2z"/></svg>