<svg xmlns="http://www.w3.org/2000/svg" xmlns:xlink="http://www.w3.org/1999/xlink" viewBox="0 0 1000 585.2"><defs><path id="a" d="M24.5 221l-18 79.6 388 201.8 18-81L99 265.6 525 89.2 545 0z"/></defs><clipPath id="b"><use xlink:href="#a" overflow="visible"/></clipPath><linearGradient id="c" x1="103.9" x2="107.8" y1="598.5" y2="598.5" gradientUnits="userSpaceOnUse" gradientTransform="matrix(137.906 0 0 -137.906 -14323.305 82784.867)"><stop offset="0" stop-color="#AD935C"/><stop offset=".4" stop-color="#D0B878"/><stop offset=".7" stop-color="#D0B878"/><stop offset="1" stop-color="#D0B878"/></linearGradient><path fill="url(#c)" d="M6.5 0H545v502.4H6.6z" clip-path="url(#b)"/><defs><path id="d" d="M606 81.7l-18.2 81L901 318.4 475 494.7 455 584l520.5-221 18-79.7z"/></defs><clipPath id="e"><use xlink:href="#d" overflow="visible"/></clipPath><linearGradient id="f" x1="106.3" x2="110.2" y1="598" y2="598" gradientUnits="userSpaceOnUse" gradientTransform="matrix(137.906 0 0 -137.906 -14208.465 82805.773)"><stop offset="0" stop-color="#D0B878"/><stop offset=".4" stop-color="#D0B878"/><stop offset="1" stop-color="#AD935C"/><stop offset="1" stop-color="#AD935C"/></linearGradient><path fill="url(#f)" d="M455 81.7h538.6V584H455z" clip-path="url(#e)"/><g><defs><path id="g" d="M24.5 221l-18 79.6 92.4-35L525 89.2 545 0z"/></defs><clipPath id="h"><use xlink:href="#g" overflow="visible"/></clipPath><linearGradient id="i" x1="105.9" x2="109.8" y1="598.6" y2="598.6" gradientUnits="userSpaceOnUse" gradientTransform="scale(61.3014) rotate(15.13 -2207.35 -680.973)"><stop offset="0" stop-color="#D0B878"/><stop offset=".4" stop-color="#D0B878"/><stop offset="1" stop-color="#AD935C"/><stop offset="1" stop-color="#AD935C"/></linearGradient><path fill="url(#i)" d="M43-135.7L621 20.5 508.3 436.3-69.3 280" clip-path="url(#h)"/></g><g><defs><path id="j" d="M901 318.4L475 494.7 455 584l520.5-221 18-79.7z"/></defs><clipPath id="k"><use xlink:href="#j" overflow="visible"/></clipPath><linearGradient id="l" x1="97.5" x2="101.4" y1="602.5" y2="602.5" gradientUnits="userSpaceOnUse" gradientTransform="scale(61.3014) rotate(-164.87 95.29 -292.02)"><stop offset="0" stop-color="#D0B878"/><stop offset=".4" stop-color="#D0B878"/><stop offset="1" stop-color="#AD935C"/><stop offset="1" stop-color="#AD935C"/></linearGradient><path fill="url(#l)" d="M957 719.7L379 563.5l112.5-416L1069.3 304" clip-path="url(#k)"/></g><path fill="#D0B878" d="M457.5 582.3c1.6-1.8 3-4 3.8-6.2 19-51.8 37.8-103.8 56.7-155.8 17.3-47.6 34.6-95.2 51.8-143 2.5-7 5.4-13.8 7-21 .7-3.3.5-6.2-.6-8.6-2.4-4.5-6.4-6.2-11.2-5.8-3.5.3-7 1.2-10.5 2.3-7.3 2.5-14.6 5-21.8 7.7l-26.5 9.6c-1 .3-2 .5-2.7.5L511 224l12-60.7c10-49.5 19.8-99 29.6-148.5.6-3 .6-6.3 0-9.2-1.3-5.3-6.8-7.3-11-4C539 3.4 537 6.2 536 9l-63 173-17 48.7c-.5 1-.8 1.7-1 2.5l-30 82c-1.7 5-3 10.2-4.4 15.3-.4 1.6-.3 3.5 0 5l1 3c2.4 3.7 7 5.7 12.8 5 4-1 8-2.2 12-3.5l10.2-3.6 7-2.5 22-8 2.5-.7 1.3-.4 1-.4c1.8-.5 2.8.4 2.7 2.2 0 1.3-.3 2.6-.5 4-11 55.2-22 110.5-33.2 165.8l-14.3 71.8c-.6 3-1 6-.6 9.2.4 3 1.5 6 4.7 7 3.4 1.3 6 0 8-2.3"/></svg>