<svg width="336" height="35" viewBox="0 0 336 35" xmlns="http://www.w3.org/2000/svg" xmlns:xlink="http://www.w3.org/1999/xlink"><defs><path id="a" d="M1.09124058 13.181391l-1.0617476 4.7476865L22.9160522 29.9652979l1.0617476-4.8311886-18.4921039-9.2925824L30.6137223 5.32027183 31.7934418 0z"/><linearGradient x1="-.25470752%" y1="49.3881369%" x2="99.6215042%" y2="49.3881369%" id="b"><stop stop-color="#AD935C" offset="0%"/><stop stop-color="#D0B878" offset="40%"/><stop stop-color="#D0B878" offset="70%"/><stop stop-color="#D0B878" offset="100%"/></linearGradient><path id="d" d="M8.96626181.0414549L7.88556005 4.83837972 26.4831309 14.0591352 1.18758435 24.4998493 0 29.7883108l30.9068826-13.0879059 1.0688259-4.7199372z"/><linearGradient x1="-.7532863%" y1="51.0222974%" x2="99.1043817%" y2="51.0222974%" id="e"><stop stop-color="#D0B878" offset="0%"/><stop stop-color="#D0B878" offset="40%"/><stop stop-color="#AD935C" offset="100%"/><stop stop-color="#AD935C" offset="100%"/></linearGradient><path id="g" d="M1.09124058 13.181391l-1.0617476 4.7476865 5.45030432-2.0875506 25.133925-10.52125507L31.7934418 0z"/><linearGradient x1="-2727.50051%" y1="12434.3248%" x2="-2694.06749%" y2="12445.2341%" id="h"><stop stop-color="#D0B878" offset="0%"/><stop stop-color="#D0B878" offset="40%"/><stop stop-color="#AD935C" offset="100%"/><stop stop-color="#AD935C" offset="100%"/></linearGradient><path id="j" d="M26.4831309 2.11140833L1.18758435 12.626699 0 17.9529352 30.9068826 4.77154425 31.9757085.01789329z"/><linearGradient x1="2845.7481%" y1="-12411.5025%" x2="2812.31507%" y2="-12422.408%" id="k"><stop stop-color="#D0B878" offset="0%"/><stop stop-color="#D0B878" offset="40%"/><stop stop-color="#AD935C" offset="100%"/><stop stop-color="#AD935C" offset="100%"/></linearGradient></defs><g fill="none" fill-rule="evenodd"><text font-family="ProximaNova-Semibold, Proxima Nova" font-size="28.466" font-weight="500" fill="#000" transform="translate(0 -1)"><tspan x="79.2788" y="28.1140423">THADDEUS</tspan> <tspan x="229.693144" y="28.1140423" font-family="LucidaGrande, Lucida Grande" font-weight="normal"> BRIGGS</tspan></text><g><mask id="c" fill="#fff"><use xlink:href="#a"/></mask><path fill="url(#b)" fill-rule="nonzero" mask="url(#c)" d="M.02949299 0H31.7934418v29.9652979H.03539159z"/></g><g transform="translate(27 5)"><mask id="f" fill="#fff"><use xlink:href="#d"/></mask><path fill="url(#e)" fill-rule="nonzero" mask="url(#f)" d="M0 .0414549h31.9816464v29.7468559H0z"/></g><g><mask id="i" fill="#fff"><use xlink:href="#g"/></mask><path fill="url(#h)" fill-rule="nonzero" mask="url(#i)" d="M2.18248116-8.09373193L36.2763761 1.22270821 29.6286565 26.0228094l-34.0703006-9.3224045"/></g><g transform="translate(27 17)"><mask id="l" fill="#fff"><use xlink:href="#j"/></mask><path fill="url(#k)" fill-rule="nonzero" mask="url(#l)" d="M29.8083671 26.0466671L-4.51282051 16.730227 2.16734143-8.08180307 36.4766532 1.25253036"/></g><path d="M27.1321466 34.843471c.0917944-.1077064.1721146-.2393476.2180119-.3709888 1.0900595-3.0995514 2.1686448-6.2110702 3.2529672-9.3225889.992528-2.8482364 1.9850559-5.6964729 2.9718467-8.5566767.1434289-.4188583.3098064-.8257492.4016009-1.2565748.0401601-.1974618.0286858-.3709888-.034423-.5145974-.1376917-.269266-.3671779-.3709888-.6425614-.347054-.2008004.0179511-.4016009.0718043-.6024013.1376249-.4188124.1495922-.8376248.2991845-1.2507.4607441l-1.5203462.5744342c-.0573716.0179511-.1147431.0299185-.1549032.0299185l.4302866-2.2738022.6884587-3.63209979c.5737156-2.96192652 1.1359568-5.92385304 1.6981981-8.88577957.0344229-.1795107.0344229-.37697246 0-.55049947-.074583-.31713557-.3901266-.43680937-.6310871-.2393476-.1491661.10770642-.2639092.27524974-.3212807.44279306L28.0214057 10.8907601l-.9753165 2.914057c-.0286858.0598369-.0458972.1017228-.0573715.1495923l-1.7211467 4.9066257c-.0975317.2991845-.1721147.6103364-.2524349.9155046-.0229486.095739-.0172115.2094291 0 .2991845l.0573716.1795107c.1376917.2213965.4016009.3410703.7343559.2991845.2294862-.0598369.4589724-.1316412.6884587-.2094292l.5851898-.2154128.4016009-.1495922 1.2621743-.4786952.1434289-.0418859.074583-.0239347.0573716-.0239348c.1032688-.0299184.1606403.0239348.1549032.1316412 0 .077788-.0172115.1555759-.0286858.2393476-.6310871 3.3029968-1.2621743 6.6119774-1.9047357 9.9209579l-.8204133 4.2962894c-.0344229.1795107-.0573715.3590214-.0344229.5504995.0229486.1795107.0860573.3590214.2696463.4188583.1950633.0777879.3442294 0 .4589725-.1376249" fill="#D0B878" fill-rule="nonzero"/></g></svg>