<!DOCTYPE svg PUBLIC "-//W3C//DTD SVG 1.1//EN" "http://www.w3.org/Graphics/SVG/1.1/DTD/svg11.dtd"><svg xmlns="http://www.w3.org/2000/svg" xmlns:xlink="http://www.w3.org/1999/xlink"><symbol viewBox="0 0 1000 1000" id="ami-logo"><path fill="#686868" fill-rule="evenodd" d="M363.6 488.7l55 8-55 8.2-8 55-8.2-55-55-8.2 55 8 16.2-16zm-16 0l8-55-8 55z" clip-rule="evenodd"/><path fill="#363636" fill-rule="evenodd" d="M355.6 433.7l8 55-16 16-55-8 55-8" clip-rule="evenodd"/><path fill="#363636" d="M28.7 499.3c0 7 2.3 13 7 17.8 4.8 5 10.5 7.2 17.3 7.2 6.2 0 11.6-2.4 16.3-7.2 4.7-4.8 7-10.4 7-16.8 0-6.8-2.3-12.7-7-17.6-4.8-5-10.3-7.4-16.6-7.4-6.6 0-12.3 2.3-17 7-4.6 4.7-7 10.4-7 17zM78.5 542v-10.3c-2.3 4.2-5.6 7.3-10 9.3-4.2 2-9.6 3-16.2 3-12.4 0-22.8-4.3-31-12.7-8.4-8.5-12.6-19-12.6-31.6 0-6 1-11.5 3-16.8 2.2-5.4 5.2-10 9-14 4.2-4.5 8.8-7.8 14-10 5-2 10.7-3 17-3 6.2 0 11.5 1 16 3 4.3 2 8 5 10.5 9.3V458h19v84H78.6zm55.3-84v9.5c2.8-3.8 6-6.6 9.8-8.5 3.7-1.8 8-2.7 12.7-2.7 6.8 0 12.6 1.2 17.4 3.6 4.8 2.3 9 6 12.4 11 3.4-5 7-8.6 11.3-11 4-2.5 8.7-3.7 13.7-3.7 10.3 0 18.2 3.2 23.7 9.7 5.5 6.5 8.2 15.7 8.2 27.8V542h-19.4v-37.2c0-11.4-1.3-19.2-3.8-23.3-2.5-4-7-6.2-13-6.2-6.6 0-11.2 2.3-14 7-2.8 4.5-4.2 12.4-4.2 23.6v36h-19.4v-37.3c0-11.4-1.3-19-4-23.2-2.5-4-7-6.2-13.4-6.2-6.5 0-11.2 2.3-14 7-3 4.5-4.4 12.4-4.4 23.6v36h-19v-84H134zm145.2-8.6h-19v-18.7h19v18.7zM260 542v-84h19v84h-19z"/><path fill="#686868" d="M442.5 458H453v13.8c3.2-4.7 7.5-8.5 13.2-11.3 5.7-2.8 11.7-4.3 18.2-4.3 12.7 0 23.2 4.2 31.5 12.7 8.2 8.3 12.4 19 12.4 31.5 0 12.3-4 22.7-12.3 31.2-8 8.5-18.4 12.7-30.7 12.7-6.8 0-13-1.3-18.5-4s-10-6.5-13.6-11.6v40.6h-10.6V458zm10.7 41.5c0 9.6 3.2 17.8 9.5 24.6 6.3 7 13.8 10.3 22.3 10.3 8.8 0 16.4-3.2 22.7-9.7 6.3-6.4 9.5-14.4 9.5-23.7 0-10-3.2-18.2-9.5-24.8-6.3-6.7-14-10-23-10-8.3 0-15.6 3.3-22 10-6.4 6.6-9.5 14.4-9.5 23.3zm159.3 0c0-9-3.2-16.7-9.5-23.4-6.4-6.6-13.7-10-22-10-9 0-16.7 3.4-23 10-6.3 6.8-9.5 15-9.5 24.8 0 9.4 3.2 17.3 9.5 23.7 6.3 6.4 14 9.7 22.8 9.7 8.6 0 16-3.4 22.4-10.2 6-6.8 9.3-15 9.3-24.5zm0 29.2c-3.4 5-8 8.6-13.6 11.4-5.8 2.8-12 4.2-18.7 4.2-12.3 0-22.6-4.2-30.8-12.7-8.2-8.4-12.3-18.8-12.3-31.2 0-12.6 4.2-23 12.6-31.6 8.4-8.5 19-12.7 31.5-12.7 6.5 0 12.4 1.3 17.8 4 5.5 2.5 10 6.3 13.6 11.3V458H623v84h-10.5v-13.3zm38.3 13.3h-11v-84h10.3v9.7c2.7-3.7 5.6-6.4 8.8-8.2 3.2-1.7 6.8-2.6 11-2.7v11.7c-6.7.6-11.5 2.6-14.5 6-3 3.5-4.4 9-4.4 17V542zm35.7 0v-73.2h-16V458h16v-27.3h10.8V458h16v10.8h-16V542m24.7-84h10.4v9.6c3.3-3.8 7-6.7 11.5-8.5 4.3-1.8 9.2-2.7 15-2.7 6 0 11.5 1 16.4 3.4 4.8 2.3 8.6 5.6 11.4 10 2 3 3.3 6.4 4.2 10.5.8 4 1.3 10 1.3 18V542h-10.6v-47c0-10-2-17-5.7-21.6-3.8-4.5-10-6.7-18.2-6.7-5 0-9.2 1-13 3-3.6 2-6.5 4.7-8.6 8.3-1.3 2.3-2.3 5-2.8 8-.5 2.8-.8 8-.8 15.2V542H722v-84zm169.8 45.4h-76c.8 9.2 4 16.5 10 22.2 6 5.6 13.4 8.5 22.3 8.5 6.4 0 12-1.5 17-4.8s9-7.8 11.8-13.7H889c-4 9.3-9.3 16.4-16.3 21.4s-15 7.4-24.3 7.4c-12.2 0-22.6-4.4-31-13-8.6-8.8-12.8-19.3-12.8-31.5 0-13 4-23.5 12.4-31.8 8.3-8.4 19-12.6 31.8-12.6 12.7 0 23 4.4 31 13 8 8.7 12 20 12 34v.8zm-12-9c-2-9.5-5.7-16.7-11-21.4-5.6-4.8-12.6-7-21.4-7-8 0-15 2.5-20.7 7.6-5.7 5-9 12-10.4 20.8H880zM915 542h-11v-84h10.2v9.7c2.6-3.7 5.5-6.4 8.7-8.2 3-1.7 6.7-2.6 11-2.7v11.7c-6.8.6-11.6 2.6-14.6 6-3 3.5-4.4 9-4.4 17V542zm23-26.4h11v.3c0 5 1.6 9.5 4.6 13 3 3.3 6.7 5 11.2 5 4.2 0 7.7-1.2 10.5-4 2.8-2.6 4.2-6 4.2-10s-1-7.2-3.3-9.6c-2.2-2.5-6.2-4.7-12-7-9.4-3.2-15.5-6.6-18.4-10-2.8-3.6-4.3-8.2-4.3-14 0-6.6 2.4-12.2 7-16.7 4.8-4.6 10.6-7 17.4-7 7 0 12.8 2 17 6.2 4.2 4 6.5 9.7 6.8 17h-11.5c-.3-4-1.5-7-3.8-9.3-2.3-2.2-5.4-3.3-9.3-3.3-3.5 0-6.4 1.2-8.8 3.5-2.3 2.3-3.5 5.2-3.5 8.7 0 2.5.4 4.6 1.4 6.3 1 1.7 2.6 3.2 4.8 4.6 2 1.3 5 2.5 9 3.7 3.8 1.2 6.4 2 7.7 2.6 5 2 9 5 11.5 9 2.5 3.6 3.7 8.4 3.7 14 0 7.3-2.5 13.3-7.6 18-5 4.8-11.5 7.2-19.2 7.2-8 0-14.2-2.6-19-7.7-4.7-5.2-7.2-12-7.4-21z"/></symbol><symbol viewBox="0 0 1000 1000" id="bonanno-logo"><path d="M325.7 389.7c-20.8 0-37.6 16.7-37.6 37.6V548c0 20.8 17 37.5 37.7 37.5s37.5-16.8 37.5-37.5V427.3c0-20.8-16.7-37.6-37.5-37.6m19 158.3c0 9.5-9.6 19-19 19-9.6 0-19-9.5-19-19V427.3c0-9.5 9.4-18.5 19-18.5 9.4 0 19 9 19 18.5V548zm439-158.3c-20.8 0-37.5 16.7-37.5 37.6V548c0 20.8 16.7 37.5 37.5 37.5 21 0 37.6-16.8 37.6-37.5V427.3c0-20.8-16.8-37.6-37.6-37.6m19 158.3c0 9.5-9.6 19-19 19s-19-9.5-19-19V427.3c0-9.5 9.4-18.5 19-18.5s19 9 19 18.5V548zM234.4 393.3h-19v-75h-19v231l-.2.2c1 11.8 6.8 22.2 15.7 28.8l2.6 1.8c.8.7 1.8 1 2.7 1.6 3.7 1.8 7.6 3 12 3.7.4 0 .8 0 1.3.2 1.3.2 2.5.3 3.8.3 4 0 7.8-.8 11.4-2 12.6-4 22.3-14.8 25.4-28.3.4-2.3.8-4.8.8-7.2v-117c0-20.8-16.8-38-37.6-38M253 548c0 9.5-9.2 19-18.6 19s-19-9.5-19-19V412.3h19c9.5 0 18.5 9.5 18.5 19V548zm293.4 1.4v-118c0-21-16.8-38-37.6-38H492v19h17c9.5 0 19 9.4 19 19V469h-19c-20.8 0-37.6 16.7-37.6 37.5V548c0 20.8 16.8 37.5 37.6 37.5 1 0 2 0 3-.3 1 0 1.6 0 2.4-.3 4-.7 7.8-2 11.2-3.7l3.8-2c.3-.4.7-.5 1-.7 9.2-6.5 15.4-17 16.4-29.3h-.2zM528 548c0 9.5-9.6 19-19.2 19-9.5 0-19-9.5-19-19v-41.6c0-9.5 9.5-18.5 19-18.5h19v60zm-75.6-134.6c-6-14-19.3-23.7-35-23.7-20.2 0-36.6 16.4-37.8 37V582h19V427.3c0-9.5 9.5-18.5 19-18.5s18.5 9 18.5 18.5V582h19V427.3c0-5-1-9.6-2.6-14m185.1 6.3v-.3c-.5-2-1-3.8-2-5.6-5.8-14-19.3-23.8-35-23.8-20 0-36.4 16-38 36.5v155.7h19v-155c0-9.4 9.6-18.4 19.2-18.4 9.5 0 18.5 9 18.5 18.5V582h19V427.3c0-2.6-.2-5-.7-7.7M719 401l-3-3c-1-.5-1.5-1.2-2.3-1.7-1.7-1.2-3.5-2.2-5.5-3l-1-.5c-4.4-2-9.5-3-14.7-3-21 0-38.2 17.5-38.2 39.3v152.8h19V427.3c0-9.5 9.4-18.5 19-18.5s18.4 9 18.4 18.5V582H730V427.3c0-10.3-4-19.6-11-26.4M458.7 650.2c-2.7 1.5-5.4 2.3-8 2.3-2.7 0-5-.6-7-1.7-1.8-1.2-3.3-2.7-4.4-4.6-1.2-2-1.8-4.3-2.2-7-.2-3 0-5.8.5-9 .7-3.6 1.8-7 3.4-10 1.5-3 3.3-5.5 5.4-7.6 2-2 4-3.8 6.3-5 2.2-1 4.2-1.6 6-1.6 2.2 0 4 .3 5.2 1 1.2.5 2.3 1.2 3 2 .8.8 1.3 1.8 1.5 2.8.3 1 .3 1.8.2 2.6-.2 1-.6 2-1.2 3-.7.7-1.6 1.2-3 1.2-1.3 0-2.2-.5-2.5-1.3-.3-.8-.6-1.8-.8-3-.2-1-.4-2-.8-2.8-.3-1-1.2-1.3-2.4-1.3-1 0-2.3.4-3.4 1.3-1.3.8-2.4 2-3.7 3.8s-2.5 3.8-3.5 6.4c-1 2.5-1.8 5.5-2.5 9-1 5-.7 9 .8 12.2 1.4 3 4 4.7 8 4.7 1.6 0 3.4-.5 5.4-1.4 2-1 4-2.4 6-4.4l1.2 2.4c-2.4 2.2-5 4.3-7.7 5.8m59.8-21c-.6 3-1.6 6-3 9-1.5 3-3.4 5.3-5.5 7.5-2 2.2-4.4 4-7 5-2.5 1.3-5 1.8-7.7 1.8-2.6 0-5-.6-7-1.8-2-1.3-4-3-5.3-5-1.3-2.2-2.4-4.6-3-7.5-.5-3-.4-5.8.2-9 .5-3.2 1.6-6.2 3-9 1.6-3 3.4-5.4 5.6-7.4 2-2 4.4-3.7 7-5 2.7-1.3 5.3-1.8 8-1.8 2.5 0 5 .6 7 1.8 2 1.3 4 3 5.2 5 1.3 2 2.3 4.5 2.8 7.3.3 2.8.3 6-.3 9m-8 0c.3-2.7.5-5.2.5-7.6 0-2.4-.3-4.4-1-6-.6-1.8-1.5-3-2.7-4-1-1-2.6-1.6-4.4-1.6-1.8 0-3.6.5-5.2 1.5s-3 2.4-4.2 4c-1.2 1.8-2.2 4-3 6-.8 2.5-1.5 5-2 7.7-.5 2.6-.8 5-.7 7.5 0 2.4.3 4.4 1 6.2.5 1.8 1.4 3.2 2.6 4.2 1.3 1 3 1.4 4.7 1.4 1.8 0 3.6-.5 5-1.5 1.6-1 3-2.5 4.3-4.3s2.4-4 3.2-6.2c1-2.3 1.5-5 2-7.5m24.1 21.5l6-34c.3-1.7.3-3 .2-4-.2-1-.6-1.4-1.5-1.4-.8 0-1.7.3-2.8 1-1 1-1.8 1.4-2.3 2v-3c1.4-1.4 2.8-2.4 4.3-3.2 1.5-.8 3-1.2 4-1.2 2.2 0 3.8.8 4.8 2.4 1 1.6 1.4 3.7.8 6.4l-.3 1.2c2-3 4.2-5.6 6.7-7.6 2.6-2 5.3-3 8-3 2.2 0 4 .6 5.4 1.5 1.4 1 2.4 2.4 3 4 .8 1.7 1 3.7 1.2 6 0 2.3-.2 4.8-.7 7.5l-3 17.4c-.2 1.4-.2 2.7 0 3.7 0 1 .6 1.4 1.4 1.4.8 0 1.7-.3 2.8-1l2.4-1.8v3c-1.2 1.2-2.6 2.3-4 3s-3 1.4-4.2 1.4c-2.2 0-3.8-.8-4.7-2.5-1-1.7-1.2-3.8-.8-6.3l3-17.6c.8-4 .8-7.4.2-10-.7-2.3-2.5-3.6-5.6-3.6-1 0-2.2.4-3.5 1.2-1.2.8-2.6 2-4 3.6-1.2 1.6-2.5 3.6-3.6 6-1 2.4-2 5.3-2.5 8.6l-3.5 19h-7v-.2zm75.3 0c-2.7 1.5-5.4 2.3-8 2.3-2.7 0-5-.6-7-1.7-1.8-1.2-3.3-2.7-4.4-4.6-1.2-2-1.8-4.3-2.2-7-.3-3-.2-5.8.4-9 .7-3.6 1.8-7 3.4-10 1.6-3 3.4-5.5 5.5-7.6 2-2 4-3.8 6.4-5 2-1 4-1.6 6-1.6s4 .3 5 1c1.4.5 2.4 1.2 3.2 2 .8.8 1.3 1.8 1.5 2.8.3 1 .3 1.8 0 2.6 0 1-.5 2-1 3-.8.7-1.7 1.2-3 1.2-1.4 0-2.3-.5-2.6-1.3l-.7-3c-.2-1-.4-2-.8-2.8-.3-1-1.2-1.3-2.3-1.3-1 0-2.3.4-3.5 1.3-1.3.8-2.4 2-3.7 3.8-1.2 1.7-2.4 3.8-3.4 6.4-1 2.5-1.8 5.5-2.5 9-.8 5-.6 9 1 12.2s4 4.7 8 4.7c1.5 0 3.3-.5 5.3-1.4 2-1 4-2.4 5.8-4.4l1.4 2.4c-2.4 2.2-5 4.3-7.6 5.8m30.2-15.3c0 4 .7 7 2.3 9.2s4.2 3.3 7.7 3.3c1.6 0 3.4-.6 5.7-1.7 2-1 4-2.5 5.6-4.2l1.4 2.5c-2 2.3-4.7 4.3-7.6 6-3 1.5-5.8 2.3-8.5 2.3s-5-.6-7-1.8c-2-1.3-3.4-3-4.6-5-1.2-2.2-2-4.6-2.4-7.5s-.3-5.8.3-9c.6-3.4 1.7-6.5 3-9.3 1.6-3 3.5-5.3 5.5-7.3s4.2-3.7 6.5-5c2.4-1 4.6-1.6 6.8-1.6 3.5 0 6 1 7.7 3.3 1.8 2.3 2.3 4.8 1.7 7.7-.3 1.6-1 3.3-2 5s-2.8 3.4-4.7 5c-2 1.6-4.4 3-7.4 4.4-2.8 1.7-6 2.8-10 3.7m.3-3.5c5.5-1.3 9.8-3.4 12.6-6.3 3-3 4.4-5.6 5-8.2.2-1.6 0-3-.5-4.2-.6-1.2-1.7-1.8-3.2-1.8-3 0-5.7 1.6-8.2 5-2.4 3-4.2 7.5-5.2 13.3v1.2c-.3.4-.3.7-.4 1m50.4-43.5h7l-3.5 20.3c1.6-.8 3-1.3 4.3-1.7 1.3-.3 2.8-.5 4.4-.5 2.7 0 5 .6 7.2 1.8 2 1.3 4 3 5.3 5 1.4 2 2.4 4.5 3 7.3.4 2.8.3 5.8-.2 9-.6 3-1.5 6-2.8 9-1.3 3-3 5.3-4.7 7.5-1.8 2.2-4 4-6.3 5-2.3 1.3-5 1.8-7.6 1.8-1.8 0-3.6-.6-5.3-1.7s-3-2.5-4-4.2l-3.3 18c-.6 3.2-1 5.8-1 7.7 0 2 .2 3.5.7 4.5.7 1 1.5 1.7 3 2 1.2.3 2.8.5 5 .5l-.6 2.7h-27l.4-2.7c2 0 4-.2 5.2-.5 1.3-.3 2.4-1 3.4-2 .8-1.2 1.6-2.6 2.2-4.5.6-2 1.2-4.4 1.8-7.6l8-45.7c-1.2 2.8-2.8 5.4-4.3 7.8s-3.2 4.7-5 6.8l-2-1.5c1.3-1.5 2.8-3.5 4.3-6s3-5.4 4.5-8.6c1.4-3.3 3-7 4.2-11 1.3-3.8 2.4-8 3-12.6l1-6zm19 41.3c.4-2.5.7-5 .6-7.3 0-2.3-.3-4.4-1-6-.7-1.8-1.6-3.2-2.8-4.3-1.2-1-2.8-1.6-4.6-1.6-2 0-3.8.4-5.3 1s-2.6 1.5-3.5 2.2l-4 22.4c-.7 3.4-.3 6.2 1.2 8.4 1.4 2.3 3.4 3.4 5.8 3.4 1.8 0 3.4-.5 5-1.4 1.5-1 3-2.3 4-4 1.2-1.6 2-3.4 3-5.7.7-2 1.3-4.4 1.7-7m28.9 8.7c-1 6-.2 9 3 9 .8 0 1.8-.3 3-1 1.4-1 3-2.4 5-4.6v3.6c-2 2.4-4 4.3-6 5.5-2 1.2-4 1.8-5.3 1.8-3 0-5-1-6.2-3.3-1.3-2.4-1.4-6-.5-10.7l4.5-25.3h-8.2l.8-4.4h8.3l3.5-20.3h7l-3.5 20.3h10.2l-.8 4.4h-10.2l-4.4 25zm45.6 1.6c-.3 2-1 4-2 5.6s-2.2 3-3.5 4c-1.2 1.2-2.7 2-4.3 2.5-1.6.6-3.2.8-4.7.8-2 0-3.7-.3-5-1-1.5-.5-2.7-1.2-3.6-2-1-1-1.6-2-2-3-.2-1-.3-1.8-.2-2.7.4-2 1.6-3 3.4-3 1.2 0 2 .4 2.3 1.3l.7 2.5c.3 1 .8 1.8 1.6 2.6s2.2 1.3 4.3 1.3c1.8 0 3.4-.7 4.6-2 1.3-1.3 2-2.7 2.2-4 .3-1.8 0-3.5-1-5-.8-1.7-1.8-3-2.8-4l-4.3-4.4c-1.6-1.8-3-3.6-3.7-5.6s-1-4-.6-6c.3-1.4.7-3 1.3-4.2.7-1.4 1.6-2.6 2.8-3.7 1.3-1 2.6-2 4.2-2.6 1.6-.8 3.4-1 5.5-1 1.7 0 3 .2 4.3.7 1.2.5 2 1.2 2.8 2 .7.7 1 1.5 1.3 2.3.4.8.4 1.7.3 2.4-.3 1.7-1 2.5-2.5 2.5-1 0-1.8-.4-2-1l-1-2.4c-.2-.8-.6-1.6-1-2.3-.5-.7-1.6-1-3.3-1-1.3 0-2.7.5-4 1.5-1.2 1-2 2.4-2.3 4s-.2 3 .5 4.4c.7 1.3 1.8 2.6 3.3 4l4.5 4.3c1.7 1.5 3 3.4 3.7 5.5.7 2.3.8 4.3.4 6.4M134 642c-19 0-24.6-11.8-24.6-37.6v-55.2c0-27.4-4.4-45.7-24.4-58.6v-6.8c14.5-2.4 24.4-29 24.4-56.6v-56c0-25.7 5.8-36.8 24.7-36.8h17v6.8h-16c-13.6 0-18.7 8.5-18.7 36.3V433c0 20-7 47.4-24.3 55 15 7 24.3 29.7 24.3 55.5v55c0 30 5.8 36.8 18.6 36.8h16v6.8h-17zm731.8-307.7c19 0 24.8 11.8 24.8 37.6v55c0 27.5 4.4 45.8 24.4 58.7v6.8c-14.6 2.4-24.4 29-24.4 56.6v56c0 25.8-5.8 37-24.8 37h-17v-7H865c13.7 0 18.7-8.5 18.7-36.3V543c0-20 7-47.4 24.4-55-14.8-7-24.3-29.7-24.3-55.5V378c0-30-5.8-37-18.6-37H849v-6.7h17z" fill="#363636"/></symbol><symbol viewBox="0 0 100 100" id="cancel"><path d="M49.9 55l-.2-.2-36.4 36.4-4.6-4.5 36.5-36.5L8.5 13.5l4.6-4.6L54 50.5"/><path d="M49.7 45.9L86.2 9.4l4.2 4.6L54 50.5l36.9 36.6-4.6 4.6-41.1-41.5"/></symbol><symbol viewBox="0 0 1000 1000" id="dr-damon-logo"><path fill="#363636" d="M491.7 678.2c-103 0-187-83.8-187-187 0-103 84-186.8 187-186.8"/><path fill="#686868" d="M508.3 321.8c103 0 187 83.8 187 187 0 103-84 186.8-187 186.8"/><path fill="#FFF" d="M445 423.6c-3-5-7.4-9-13-12.2-5.4-3.2-11.7-4.7-18.5-4.7-3 0-6 .3-9.2 1-3 .7-5.8 1.7-8.2 3.2-2.3 1.3-4.2 3.2-5.6 5.3-1.4 2.2-2 5-2 8.2 0 5.7 2.5 10 7.6 12.8 5.2 2.8 13 5.3 23.2 7.6 6.5 1.4 12.5 3.3 18 5.4 5.6 2 10.5 4.7 14.6 8 4 3 7.3 6.8 9.6 11.2 2.3 4.4 3.4 9.6 3.4 15.5 0 8-1.5 15-4.6 20.5-3 5.6-7 10-12.2 13.6-5 3.6-11 6.2-17.4 7.7-6.5 1.5-13.2 2.3-20 2.3-10.4 0-20.5-2-30.4-6-9.8-4-18-10-24.5-18.4l19.2-16.3c3.5 5.4 8.6 9.8 15 13.5 6.4 3.6 13.4 5.4 21 5.4 3.5 0 6.8-.3 10-1s6-1.8 8.6-3.3c2.6-1.6 4.6-3.6 6.2-6 1.5-2.6 2.3-5.7 2.3-9.6 0-6.3-3-11-9-14-6-3.2-14.8-6-26.4-8.7-4.6-1.2-9.2-2.5-14-4.2-4.6-1.6-8.8-4-12.7-6.7-4-3-7-6.4-9.4-10.8-2.4-4.3-3.6-9.6-3.6-16 0-7.2 1.5-13.4 4.4-18.7 3-5.3 6.8-9.6 11.6-13 4.8-3.2 10.2-5.7 16.3-7.4 6-1.7 12.4-2.5 19-2.5 9.7 0 19 2 28 5.7 9.2 3.8 16.2 9.4 21.2 16.6l-18.5 16z"/><path fill="#363636" d="M642 494.4c12 12.4 19.7 29.4 19.7 48.2 0 19-7.8 35.8-19.7 48.2-12 12.6-29.2 20.2-47.8 20.2-18.8 0-35.7-7.6-48-20.2-12-12.4-19.7-29.4-19.7-48.2 0-19 7.8-35.8 19.7-48.2 12.3-12.4 29.2-20.2 48-20.2 18.6 0 35.7 7.8 47.8 20.2M560 508c-8.6 9-14 21-14 34.6 0 13.7 5.4 25.7 14 34.5 8.8 9 21 14.6 34.2 14.6 13 0 25.2-5.5 34-14.5 8.7-8.7 14.2-21 14.2-34.4 0-13.5-5.5-25.7-14.2-34.5-8.7-9-21-14.4-34-14.4s-25.4 5.6-34.3 14.5"/><path fill="#363636" d="M642.8 496.2c-.5-1-3.4-6.7-1.7-14.4 2.2-9.5 21-20.7 21-20.7s-41 0-67.7 8c-27 8-38.2 16-38.6 16.3l87 11z"/><path fill="#FFF" d="M538.5 543.8c0 30.8 25 56 55.6 56 30.8 0 55.7-25 55.7-56 0-30.8-25-56-55.6-56-30.6.2-55.5 25.2-55.5 56"/><path fill="#686868" d="M569.6 566.7c13.5 13.6 35.4 13.6 49 0 1.6-1.7 1.6-4.4 0-6-1.8-1.8-4.5-1.8-6.2 0-10 10-26.5 10-36.7 0-1.7-1.8-4.4-1.8-6 0-1.8 1.6-1.8 4.3 0 6M608 537c-2 0-4-1.5-4.2-3.6-.4-2.3 1.2-4.6 3.5-5l11.7-2c2.3-.3 4.5 1.3 5 3.6.3 2.3-1.3 4.6-3.6 5l-11.7 2h-.7m-42.2-4c0 5 3.8 8.8 8.5 8.8s8.5-4 8.5-8.7c0-4.7-3.8-8.6-8.5-8.6s-8.5 4-8.5 8.7"/><path fill="#363636" d="M604 478c-.5-.3-5.8-3.3-7.4-8.7-2-6.7 14.4-19.5 14.4-19.5s-34 13-48 27-14.4 9.8-14.5 10l55.6-8.7z"/><path fill="#363636" d="M565.2 487.4c-.6 0-5-.3-8.7-3.7-4.6-4.3-1-18.5-1-18.5s-17.2 23-21.5 40.6c-4.3 17.7-5.4 19.5-5.4 19.8l36.6-38.2z"/></symbol><symbol viewBox="0 0 1000 1000" id="flatirons-logo"><linearGradient id="ea" x1="1117.3" x2="1117.3" y1="496.7" y2="222" gradientUnits="userSpaceOnUse" gradientTransform="matrix(.5918 .0017 -.0018 .5918 200.234 292.866)"><stop offset="0" stop-color="#575757"/><stop offset="1" stop-color="#232323"/></linearGradient><path fill="url(#ea)" d="M979.7 386.3c-19-22-67.3-10-118.8 26.2 41.2-27.2 78.6-36.2 93.3-19 20 23.3-9.4 86-65.8 140C832 587.2 770 612 750 588.7c-10.6-12.4-8-36.8 6-64.3-.3-.2 0 .4-.2.2-22 38-28.5 71.8-13.8 89 24.3 28.3 97.3.3 163-62.4s99-136.7 74.7-165z"/><path d="M12.4 444H66v6.6H20v19h44v6.4H20v27.2h-7.6v-59zm96 0h7.6v52.7h43.6v6.5h-51.2v-59zm117.3 0h9.5l33.3 59.3H260l-7-12.5h-45l-7 12.5h-8.7l33.4-59.2zm4.7 6.6l-18.8 33.6h37.7l-19-33.6zm94.2 0h-28.4V444h64.3v6.6H332v52.6h-7.5v-52.6zm75.9-6.6h7.6v59.3h-7.5V444zm53.2 0h45c16 0 18.7 5.7 18.7 17v4.7c0 8.3-4.5 10.6-10.3 11.2 7.8 1.6 9.7 5.8 9.7 11.2v15h-7v-13c0-9-4.4-10.3-11.3-10.3h-37v23.3h-7.6V444zm44 29.3c8.5 0 12-2.4 12-8.6v-5.4c0-6.6-2.6-8.7-13.8-8.7h-34.7v22.7h36.5zm62.5-7.7c0-15 4.8-22 20-22h32.3c15.2 0 20 7 20 22v16.2c0 15-4.8 22-20 22h-32.3c-15.2 0-20-7-20-22v-16.2zm64.7-3c0-10.4-6-12.7-13.3-12.7H581c-7.3 0-13.2 2.2-13.2 12.5v22.2c0 10.3 6 12.6 13.2 12.6h30.8c7.3 0 13.2-2.3 13.2-12.6v-22.2zm51.5-18.6h11.3l51.4 52v-52h7.7v59.3h-11.3l-51.4-52v52h-7.6V444zm114.3 40.6h7v4.2c0 5.8 3 8.6 12.5 8.6h23.6c11 0 14.3-2.5 14.3-11 0-7.3-2.7-9.2-12-9.2h-14.5c-23.2 0-30.8-1.5-30.8-17.2 0-13.5 7.6-16.5 23.3-16.5h16.4c18.8 0 23.6 5 23.6 15.6v2h-7c-.3-9.3-1.2-11-21-11h-8.2c-14.6 0-19.8.8-19.8 10.5 0 7 2 9.4 14 9.4h22.4c14.8 0 21 4.4 21 14.4v3.8c0 14.5-11.3 15.6-22.5 15.6h-21.2c-11 0-20.8-2-20.8-15v-4.2z" fill="#363636"/></symbol><symbol viewBox="0 0 1000 1000" id="phone"><path d="M351 3.2s-220.6 5-215.8 201.3 44.2 368 108 466.2S474 1019 660.4 994.7c0 0 93.2-19.7 162-64L596.4 754s-68.7 44.5-108-14.5c-44-58.8-171.7-319-171.7-319S282.3 337 361 297.7L351 3.2zm24.6 0s14.7-4.8 49 10c29.6 14.7 29.6 29.4 29.6 29.4l5 196.3s-10 9.4-19.7 24c-10 10-49 29.4-54 14.7-9.8-10-10-275-10-275z"/><path d="M616 724.7l64-34.4s14.7-4.8 34.3 10c24.5 14.6 142.4 108 142.4 108s19.6 14.6 14.7 39c-5 19.7-19.6 64-19.6 64L616 724.6z"/></symbol><symbol viewBox="0 0 1000 1000" id="proctor-logo"><path d="M20.3 591.2h.4c3-10 14.5-25.4 36.6-25.4 31 0 45.2 24.5 45.2 52.8C102.5 649 88 671 57.3 671c-16.6 0-30.7-7-36.6-23.3h-.4v57H13V568h7.3v23.2zM95 618.6c0-23-10.8-46.4-37.8-46.4-26.8 0-36.8 22.5-36.8 46.4 0 24 8.4 46 36.8 46 26.3 0 37.8-21.2 37.8-46zm30-28.2h.7c4-13 20.4-23.7 38.5-23v7.5c-7.8-1-18.8 1-27.8 9.7-7.4 7.6-10.6 14-11.4 29v55h-7.4V568h7.4v22.4zm83-24.6c29.4 0 46 24 46 52.6S237.6 671 208 671c-29.7 0-46.3-24-46.3-52.6s16.6-52.6 46.2-52.6zm0 98.8c25 0 38.6-22 38.6-46.2 0-24-13.5-46.2-38.7-46.2-25.3 0-38.8 22-38.8 46.2 0 24 13.4 46.2 38.7 46.2zm136.7-65.4c-1.4-17.8-16-27-34-27-25.3 0-38.7 22.3-38.7 45.2 0 27.2 12.7 47.2 38.7 47.2 18.8 0 32.5-13 35-31.3h7.4c-3.2 24-20.6 37.8-42.4 37.8-32.7 0-46.2-25.5-46.2-53.5s16.4-51.7 46.2-51.7c21.7 0 39.3 10.6 41.5 33.5h-7.3zm58.1-24.6h-22V645c0 16 7.7 17.7 21.8 17.3v6.5c-15.3 1-30-1.2-29.2-24v-70.2h-18.6V568h18.6v-31h7.4v31h22v6.6zm46.8-8.8c29.6 0 46.2 24 46.2 52.6S479.2 671 449.6 671c-29.5 0-46.2-24-46.2-52.6s16.7-52.6 46.2-52.6zm0 98.8c25.2 0 38.7-22 38.7-46.2 0-24-13.5-46.2-38.7-46.2-25.2 0-38.7 22-38.7 46.2 0 24 13.4 46.2 38.6 46.2zm68.6-74.2h.6c4-13 20.4-23.7 38.6-23v7.5c-7.8-1-18.8 1-27.8 9.7-7.4 7.6-10.6 14-11.4 29v55h-7.4V568h7.4v22.4z" fill="#686868"/><path fill="#B5B5B5" d="M595.8 295.3h391.4v391.4H595.8z"/><path fill="#686868" d="M941.6 558c12.5 0 22.4 3.4 29.7 10.3 1.5 1.4 2.8 3 4 4.4V307.2H607.7v367.6h237v-117h97z"/><path fill="#363636" d="M961.5 596.4c0-13.5-8.3-20.3-24.8-20.3H865v39.3h73c15.7 0 23.5-6.3 23.5-19zM940 661.6s9 0 19.3-3.5c9-3 14.8-9.7 16-11.2v-27.5c-1.3 1.6-2.7 3.2-4.4 4.6-7.7 6.3-18.8 9.5-33.3 9.5H865v41.3h42v-13.2h33z"/><path fill="#686868" d="M975.3 647c-1.2 1.4-7 8.2-16 11.2-10.2 3.3-19.2 3.5-19.2 3.5h-33V675h68.4v-28z"/></symbol></svg>