<svg xmlns="http://www.w3.org/2000/svg" viewBox="0 0 1000 1000"><path fill="#686868" fill-rule="evenodd" d="M363.6 488.7l55 8-55 8.2-8 55-8.2-55-55-8.2 55 8 16.2-16zm-16 0l8-55-8 55z" clip-rule="evenodd"/><path fill="#363636" fill-rule="evenodd" d="M355.6 433.7l8 55-16 16-55-8 55-8" clip-rule="evenodd"/><path fill="#363636" d="M28.7 499.3c0 7 2.3 13 7 17.8 4.8 5 10.5 7.2 17.3 7.2 6.2 0 11.6-2.4 16.3-7.2 4.7-4.8 7-10.4 7-16.8 0-6.8-2.3-12.7-7-17.6-4.8-5-10.3-7.4-16.6-7.4-6.6 0-12.3 2.3-17 7-4.6 4.7-7 10.4-7 17zM78.5 542v-10.3c-2.3 4.2-5.6 7.3-10 9.3-4.2 2-9.6 3-16.2 3-12.4 0-22.8-4.3-31-12.7-8.4-8.5-12.6-19-12.6-31.6 0-6 1-11.5 3-16.8 2.2-5.4 5.2-10 9-14 4.2-4.5 8.8-7.8 14-10 5-2 10.7-3 17-3 6.2 0 11.5 1 16 3 4.3 2 8 5 10.5 9.3V458h19v84H78.6zM133.8 458v9.5c2.8-3.8 6-6.6 9.8-8.5 3.7-1.8 8-2.7 12.7-2.7 6.8 0 12.6 1.2 17.4 3.6 4.8 2.3 9 6 12.4 11 3.4-5 7-8.6 11.3-11 4-2.5 8.7-3.7 13.7-3.7 10.3 0 18.2 3.2 23.7 9.7 5.5 6.5 8.2 15.7 8.2 27.8V542h-19.4v-37.2c0-11.4-1.3-19.2-3.8-23.3-2.5-4-7-6.2-13-6.2-6.6 0-11.2 2.3-14 7-2.8 4.5-4.2 12.4-4.2 23.6v36h-19.4v-37.3c0-11.4-1.3-19-4-23.2-2.5-4-7-6.2-13.4-6.2-6.5 0-11.2 2.3-14 7-3 4.5-4.4 12.4-4.4 23.6v36h-19v-84H134zM279 449.4h-19v-18.7h19v18.7zM260 542v-84h19v84h-19z"/><path fill="#686868" d="M442.5 458H453v13.8c3.2-4.7 7.5-8.5 13.2-11.3 5.7-2.8 11.7-4.3 18.2-4.3 12.7 0 23.2 4.2 31.5 12.7 8.2 8.3 12.4 19 12.4 31.5 0 12.3-4 22.7-12.3 31.2-8 8.5-18.4 12.7-30.7 12.7-6.8 0-13-1.3-18.5-4s-10-6.5-13.6-11.6v40.6h-10.6V458zm10.7 41.5c0 9.6 3.2 17.8 9.5 24.6 6.3 7 13.8 10.3 22.3 10.3 8.8 0 16.4-3.2 22.7-9.7 6.3-6.4 9.5-14.4 9.5-23.7 0-10-3.2-18.2-9.5-24.8-6.3-6.7-14-10-23-10-8.3 0-15.6 3.3-22 10-6.4 6.6-9.5 14.4-9.5 23.3zM612.5 499.5c0-9-3.2-16.7-9.5-23.4-6.4-6.6-13.7-10-22-10-9 0-16.7 3.4-23 10-6.3 6.8-9.5 15-9.5 24.8 0 9.4 3.2 17.3 9.5 23.7 6.3 6.4 14 9.7 22.8 9.7 8.6 0 16-3.4 22.4-10.2 6-6.8 9.3-15 9.3-24.5zm0 29.2c-3.4 5-8 8.6-13.6 11.4-5.8 2.8-12 4.2-18.7 4.2-12.3 0-22.6-4.2-30.8-12.7-8.2-8.4-12.3-18.8-12.3-31.2 0-12.6 4.2-23 12.6-31.6 8.4-8.5 19-12.7 31.5-12.7 6.5 0 12.4 1.3 17.8 4 5.5 2.5 10 6.3 13.6 11.3V458H623v84h-10.5v-13.3zM650.8 542h-11v-84h10.3v9.7c2.7-3.7 5.6-6.4 8.8-8.2 3.2-1.7 6.8-2.6 11-2.7v11.7c-6.7.6-11.5 2.6-14.5 6-3 3.5-4.4 9-4.4 17V542zM686.5 542v-73.2h-16V458h16v-27.3h10.8V458h16v10.8h-16V542M722 458h10.4v9.6c3.3-3.8 7-6.7 11.5-8.5 4.3-1.8 9.2-2.7 15-2.7 6 0 11.5 1 16.4 3.4 4.8 2.3 8.6 5.6 11.4 10 2 3 3.3 6.4 4.2 10.5.8 4 1.3 10 1.3 18V542h-10.6v-47c0-10-2-17-5.7-21.6-3.8-4.5-10-6.7-18.2-6.7-5 0-9.2 1-13 3-3.6 2-6.5 4.7-8.6 8.3-1.3 2.3-2.3 5-2.8 8-.5 2.8-.8 8-.8 15.2V542H722v-84zM891.8 503.4h-76c.8 9.2 4 16.5 10 22.2 6 5.6 13.4 8.5 22.3 8.5 6.4 0 12-1.5 17-4.8s9-7.8 11.8-13.7H889c-4 9.3-9.3 16.4-16.3 21.4s-15 7.4-24.3 7.4c-12.2 0-22.6-4.4-31-13-8.6-8.8-12.8-19.3-12.8-31.5 0-13 4-23.5 12.4-31.8 8.3-8.4 19-12.6 31.8-12.6 12.7 0 23 4.4 31 13 8 8.7 12 20 12 34v.8zm-12-9c-2-9.5-5.7-16.7-11-21.4-5.6-4.8-12.6-7-21.4-7-8 0-15 2.5-20.7 7.6-5.7 5-9 12-10.4 20.8H880zM915 542h-11v-84h10.2v9.7c2.6-3.7 5.5-6.4 8.7-8.2 3-1.7 6.7-2.6 11-2.7v11.7c-6.8.6-11.6 2.6-14.6 6-3 3.5-4.4 9-4.4 17V542zM938 515.6h11v.3c0 5 1.6 9.5 4.6 13 3 3.3 6.7 5 11.2 5 4.2 0 7.7-1.2 10.5-4 2.8-2.6 4.2-6 4.2-10s-1-7.2-3.3-9.6c-2.2-2.5-6.2-4.7-12-7-9.4-3.2-15.5-6.6-18.4-10-2.8-3.6-4.3-8.2-4.3-14 0-6.6 2.4-12.2 7-16.7 4.8-4.6 10.6-7 17.4-7 7 0 12.8 2 17 6.2 4.2 4 6.5 9.7 6.8 17h-11.5c-.3-4-1.5-7-3.8-9.3-2.3-2.2-5.4-3.3-9.3-3.3-3.5 0-6.4 1.2-8.8 3.5-2.3 2.3-3.5 5.2-3.5 8.7 0 2.5.4 4.6 1.4 6.3 1 1.7 2.6 3.2 4.8 4.6 2 1.3 5 2.5 9 3.7 3.8 1.2 6.4 2 7.7 2.6 5 2 9 5 11.5 9 2.5 3.6 3.7 8.4 3.7 14 0 7.3-2.5 13.3-7.6 18-5 4.8-11.5 7.2-19.2 7.2-8 0-14.2-2.6-19-7.7-4.7-5.2-7.2-12-7.4-21z"/></svg>