<svg xmlns="http://www.w3.org/2000/svg" viewBox="0 0 1000 1000"><g fill="#363636"><path d="M325.7 389.7c-20.8 0-37.6 16.7-37.6 37.6V548c0 20.8 17 37.5 37.7 37.5s37.5-16.8 37.5-37.5V427.3c0-20.8-16.7-37.6-37.5-37.6m19 158.3c0 9.5-9.6 19-19 19-9.6 0-19-9.5-19-19V427.3c0-9.5 9.4-18.5 19-18.5 9.4 0 19 9 19 18.5V548zM783.8 389.7c-20.8 0-37.5 16.7-37.5 37.6V548c0 20.8 16.7 37.5 37.5 37.5 21 0 37.6-16.8 37.6-37.5V427.3c0-20.8-16.8-37.6-37.6-37.6m19 158.3c0 9.5-9.6 19-19 19s-19-9.5-19-19V427.3c0-9.5 9.4-18.5 19-18.5s19 9 19 18.5V548zM234.4 393.3h-19v-75h-19v231l-.2.2c1 11.8 6.8 22.2 15.7 28.8l2.6 1.8c.8.7 1.8 1 2.7 1.6 3.7 1.8 7.6 3 12 3.7.4 0 .8 0 1.3.2 1.3.2 2.5.3 3.8.3 4 0 7.8-.8 11.4-2 12.6-4 22.3-14.8 25.4-28.3.4-2.3.8-4.8.8-7.2v-117c0-20.8-16.8-38-37.6-38M253 548c0 9.5-9.2 19-18.6 19s-19-9.5-19-19V412.3h19c9.5 0 18.5 9.5 18.5 19V548zM546.4 549.4v-118c0-21-16.8-38-37.6-38H492v19H509c9.5 0 19 9.4 19 19V469h-19c-20.8 0-37.6 16.7-37.6 37.5V548c0 20.8 16.8 37.5 37.6 37.5 1 0 2 0 3-.3 1 0 1.6 0 2.4-.3 4-.7 7.8-2 11.2-3.7l3.8-2c.3-.4.7-.5 1-.7 9.2-6.5 15.4-17 16.4-29.3h-.2zM528 548c0 9.5-9.6 19-19.2 19-9.5 0-19-9.5-19-19v-41.6c0-9.5 9.5-18.5 19-18.5h19v60zM452.4 413.4c-6-14-19.3-23.7-35-23.7-20.2 0-36.6 16.4-37.8 37V582h19V427.3c0-9.5 9.5-18.5 19-18.5s18.5 9 18.5 18.5V582h19V427.3c0-5-1-9.6-2.6-14M637.6 419.6v-.3c-.5-2-1-3.8-2-5.6-5.8-14-19.3-23.8-35-23.8-20 0-36.4 16-38 36.5v155.7h19v-155c0-9.4 9.6-18.4 19.2-18.4 9.5 0 18.5 9 18.5 18.5V582h19V427.3c0-2.6-.2-5-.7-7.7M719 401l-3-3c-1-.5-1.5-1.2-2.3-1.7-1.7-1.2-3.5-2.2-5.5-3l-1-.5c-4.4-2-9.5-3-14.7-3-21 0-38.2 17.5-38.2 39.3v152.8h19V427.3c0-9.5 9.4-18.5 19-18.5s18.4 9 18.4 18.5V582H730V427.3c0-10.3-4-19.6-11-26.4M458.7 650.2c-2.7 1.5-5.4 2.3-8 2.3-2.7 0-5-.6-7-1.7-1.8-1.2-3.3-2.7-4.4-4.6-1.2-2-1.8-4.3-2.2-7-.2-3 0-5.8.5-9 .7-3.6 1.8-7 3.4-10 1.5-3 3.3-5.5 5.4-7.6 2-2 4-3.8 6.3-5 2.2-1 4.2-1.6 6-1.6 2.2 0 4 .3 5.2 1 1.2.5 2.3 1.2 3 2 .8.8 1.3 1.8 1.5 2.8.3 1 .3 1.8.2 2.6-.2 1-.6 2-1.2 3-.7.7-1.6 1.2-3 1.2-1.3 0-2.2-.5-2.5-1.3-.3-.8-.6-1.8-.8-3-.2-1-.4-2-.8-2.8-.3-1-1.2-1.3-2.4-1.3-1 0-2.3.4-3.4 1.3-1.3.8-2.4 2-3.7 3.8s-2.5 3.8-3.5 6.4c-1 2.5-1.8 5.5-2.5 9-1 5-.7 9 .8 12.2 1.4 3 4 4.7 8 4.7 1.6 0 3.4-.5 5.4-1.4 2-1 4-2.4 6-4.4l1.2 2.4c-2.4 2.2-5 4.3-7.7 5.8M518.3 629c-.6 3-1.6 6-3 9-1.5 3-3.4 5.3-5.5 7.5-2 2.2-4.4 4-7 5-2.5 1.3-5 1.8-7.7 1.8-2.6 0-5-.6-7-1.8-2-1.3-4-3-5.3-5-1.3-2.2-2.4-4.6-3-7.5-.5-3-.4-5.8.2-9 .5-3.2 1.6-6.2 3-9 1.6-3 3.4-5.4 5.6-7.4 2-2 4.4-3.7 7-5 2.7-1.3 5.3-1.8 8-1.8 2.5 0 5 .6 7 1.8 2 1.3 4 3 5.2 5 1.3 2 2.3 4.5 2.8 7.3.3 2.8.3 6-.3 9m-8 0c.3-2.7.5-5.2.5-7.6 0-2.4-.3-4.4-1-6-.6-1.8-1.5-3-2.7-4-1-1-2.6-1.6-4.4-1.6-1.8 0-3.6.5-5.2 1.5s-3 2.4-4.2 4c-1.2 1.8-2.2 4-3 6-.8 2.5-1.5 5-2 7.7-.5 2.6-.8 5-.7 7.5 0 2.4.3 4.4 1 6.2.5 1.8 1.4 3.2 2.6 4.2 1.3 1 3 1.4 4.7 1.4 1.8 0 3.6-.5 5-1.5 1.6-1 3-2.5 4.3-4.3s2.4-4 3.2-6.2c1-2.3 1.5-5 2-7.5M534.5 650.2l6-34c.3-1.7.3-3 .2-4-.2-1-.6-1.4-1.5-1.4-.8 0-1.7.3-2.8 1-1 1-1.8 1.4-2.3 2v-3c1.4-1.4 2.8-2.4 4.3-3.2 1.5-.8 3-1.2 4-1.2 2.2 0 3.8.8 4.8 2.4 1 1.6 1.4 3.7.8 6.4l-.3 1.2c2-3 4.2-5.6 6.7-7.6 2.6-2 5.3-3 8-3 2.2 0 4 .6 5.4 1.5 1.4 1 2.4 2.4 3 4 .8 1.7 1 3.7 1.2 6 0 2.3-.2 4.8-.7 7.5l-3 17.4c-.2 1.4-.2 2.7 0 3.7 0 1 .6 1.4 1.4 1.4.8 0 1.7-.3 2.8-1l2.4-1.8v3c-1.2 1.2-2.6 2.3-4 3s-3 1.4-4.2 1.4c-2.2 0-3.8-.8-4.7-2.5-1-1.7-1.2-3.8-.8-6.3l3-17.6c.8-4 .8-7.4.2-10-.7-2.3-2.5-3.6-5.6-3.6-1 0-2.2.4-3.5 1.2-1.2.8-2.6 2-4 3.6-1.2 1.6-2.5 3.6-3.6 6-1 2.4-2 5.3-2.5 8.6l-3.5 19h-7v-.2zM609.8 650.2c-2.7 1.5-5.4 2.3-8 2.3-2.7 0-5-.6-7-1.7-1.8-1.2-3.3-2.7-4.4-4.6-1.2-2-1.8-4.3-2.2-7-.3-3-.2-5.8.4-9 .7-3.6 1.8-7 3.4-10 1.6-3 3.4-5.5 5.5-7.6 2-2 4-3.8 6.4-5 2-1 4-1.6 6-1.6s4 .3 5 1c1.4.5 2.4 1.2 3.2 2 .8.8 1.3 1.8 1.5 2.8.3 1 .3 1.8 0 2.6 0 1-.5 2-1 3-.8.7-1.7 1.2-3 1.2-1.4 0-2.3-.5-2.6-1.3l-.7-3c-.2-1-.4-2-.8-2.8-.3-1-1.2-1.3-2.3-1.3-1 0-2.3.4-3.5 1.3-1.3.8-2.4 2-3.7 3.8-1.2 1.7-2.4 3.8-3.4 6.4-1 2.5-1.8 5.5-2.5 9-.8 5-.6 9 1 12.2s4 4.7 8 4.7c1.5 0 3.3-.5 5.3-1.4 2-1 4-2.4 5.8-4.4l1.4 2.4c-2.4 2.2-5 4.3-7.6 5.8M640.2 634.7c0 4 .7 7 2.3 9.2s4.2 3.3 7.7 3.3c1.6 0 3.4-.6 5.7-1.7 2-1 4-2.5 5.6-4.2l1.4 2.5c-2 2.3-4.7 4.3-7.6 6-3 1.5-5.8 2.3-8.5 2.3s-5-.6-7-1.8c-2-1.3-3.4-3-4.6-5-1.2-2.2-2-4.6-2.4-7.5s-.3-5.8.3-9c.6-3.4 1.7-6.5 3-9.3 1.6-3 3.5-5.3 5.5-7.3s4.2-3.7 6.5-5c2.4-1 4.6-1.6 6.8-1.6 3.5 0 6 1 7.7 3.3 1.8 2.3 2.3 4.8 1.7 7.7-.3 1.6-1 3.3-2 5s-2.8 3.4-4.7 5c-2 1.6-4.4 3-7.4 4.4-2.8 1.7-6 2.8-10 3.7m.3-3.5c5.5-1.3 9.8-3.4 12.6-6.3 3-3 4.4-5.6 5-8.2.2-1.6 0-3-.5-4.2-.6-1.2-1.7-1.8-3.2-1.8-3 0-5.7 1.6-8.2 5-2.4 3-4.2 7.5-5.2 13.3v1.2c-.3.4-.3.7-.4 1M691 587.7h7l-3.5 20.3c1.6-.8 3-1.3 4.3-1.7 1.3-.3 2.8-.5 4.4-.5 2.7 0 5 .6 7.2 1.8 2 1.3 4 3 5.3 5 1.4 2 2.4 4.5 3 7.3.4 2.8.3 5.8-.2 9-.6 3-1.5 6-2.8 9-1.3 3-3 5.3-4.7 7.5-1.8 2.2-4 4-6.3 5-2.3 1.3-5 1.8-7.6 1.8-1.8 0-3.6-.6-5.3-1.7s-3-2.5-4-4.2l-3.3 18c-.6 3.2-1 5.8-1 7.7 0 2 .2 3.5.7 4.5.7 1 1.5 1.7 3 2 1.2.3 2.8.5 5 .5l-.6 2.7h-27l.4-2.7c2 0 4-.2 5.2-.5 1.3-.3 2.4-1 3.4-2 .8-1.2 1.6-2.6 2.2-4.5.6-2 1.2-4.4 1.8-7.6l8-45.7c-1.2 2.8-2.8 5.4-4.3 7.8s-3.2 4.7-5 6.8l-2-1.5c1.3-1.5 2.8-3.5 4.3-6s3-5.4 4.5-8.6c1.4-3.3 3-7 4.2-11 1.3-3.8 2.4-8 3-12.6l1-6zM710 629c.4-2.5.7-5 .6-7.3 0-2.3-.3-4.4-1-6-.7-1.8-1.6-3.2-2.8-4.3-1.2-1-2.8-1.6-4.6-1.6-2 0-3.8.4-5.3 1s-2.6 1.5-3.5 2.2l-4 22.4c-.7 3.4-.3 6.2 1.2 8.4 1.4 2.3 3.4 3.4 5.8 3.4 1.8 0 3.4-.5 5-1.4 1.5-1 3-2.3 4-4 1.2-1.6 2-3.4 3-5.7.7-2 1.3-4.4 1.7-7M739 637.8c-1 6-.2 9 3 9 .8 0 1.8-.3 3-1 1.4-1 3-2.4 5-4.6v3.6c-2 2.4-4 4.3-6 5.5-2 1.2-4 1.8-5.3 1.8-3 0-5-1-6.2-3.3-1.3-2.4-1.4-6-.5-10.7l4.5-25.3h-8.2l.8-4.4h8.3l3.5-20.3h7l-3.5 20.3h10.2l-.8 4.4h-10.2l-4.4 25zM784.6 639.4c-.3 2-1 4-2 5.6s-2.2 3-3.5 4c-1.2 1.2-2.7 2-4.3 2.5-1.6.6-3.2.8-4.7.8-2 0-3.7-.3-5-1-1.5-.5-2.7-1.2-3.6-2-1-1-1.6-2-2-3-.2-1-.3-1.8-.2-2.7.4-2 1.6-3 3.4-3 1.2 0 2 .4 2.3 1.3l.7 2.5c.3 1 .8 1.8 1.6 2.6s2.2 1.3 4.3 1.3c1.8 0 3.4-.7 4.6-2 1.3-1.3 2-2.7 2.2-4 .3-1.8 0-3.5-1-5-.8-1.7-1.8-3-2.8-4l-4.3-4.4c-1.6-1.8-3-3.6-3.7-5.6s-1-4-.6-6c.3-1.4.7-3 1.3-4.2.7-1.4 1.6-2.6 2.8-3.7 1.3-1 2.6-2 4.2-2.6 1.6-.8 3.4-1 5.5-1 1.7 0 3 .2 4.3.7 1.2.5 2 1.2 2.8 2 .7.7 1 1.5 1.3 2.3.4.8.4 1.7.3 2.4-.3 1.7-1 2.5-2.5 2.5-1 0-1.8-.4-2-1l-1-2.4c-.2-.8-.6-1.6-1-2.3-.5-.7-1.6-1-3.3-1-1.3 0-2.7.5-4 1.5-1.2 1-2 2.4-2.3 4s-.2 3 .5 4.4c.7 1.3 1.8 2.6 3.3 4l4.5 4.3c1.7 1.5 3 3.4 3.7 5.5.7 2.3.8 4.3.4 6.4M134 642c-19 0-24.6-11.8-24.6-37.6v-55.2c0-27.4-4.4-45.7-24.4-58.6v-6.8c14.5-2.4 24.4-29 24.4-56.6v-56c0-25.7 5.8-36.8 24.7-36.8h17v6.8h-16c-13.6 0-18.7 8.5-18.7 36.3V433c0 20-7 47.4-24.3 55 15 7 24.3 29.7 24.3 55.5v55c0 30 5.8 36.8 18.6 36.8H151v6.8h-17zM865.8 334.3c19 0 24.8 11.8 24.8 37.6v55c0 27.5 4.4 45.8 24.4 58.7v6.8c-14.6 2.4-24.4 29-24.4 56.6v56c0 25.8-5.8 37-24.8 37h-17V635H865c13.7 0 18.7-8.5 18.7-36.3v-55.7c0-20 7-47.4 24.4-55-14.8-7-24.3-29.7-24.3-55.5V378c0-30-5.8-37-18.6-37H849v-6.7h17z"/></g></svg>