<svg xmlns="http://www.w3.org/2000/svg" viewBox="0 0 1000 1000"><g fill="#010101"><path d="M500 3.7C226 3.7 3.7 226 3.7 500 3.7 774 226 996.3 500 996.3c274 0 496.3-222.2 496.3-496.3C996.3 226 774 3.7 500 3.7zm0 911c-228.7 0-414.8-186-414.8-414.7S271.2 85.2 500 85.2c228.7 0 414.8 186 414.8 414.8 0 228.7-186 414.8-414.8 414.8z"/><path d="M806.7 403l-.2-1c0-.7-.3-1.5-.5-2.2 0-.4-.3-1-.4-1.3l-.7-2c-.3-.3-.5-.8-.7-1.2l-1-1.7c0-.4-.4-.8-.6-1.2l-1-1.6-1-1c-.4-.6-1-1-1.3-1.5l-1-1c-.5-.4-1-1-1.5-1.3-.5-.3-1-.6-1.3-1-.2 0-.3 0-.4-.2l-280.5-187c-9-6-20.4-6-29.3 0L205 384.8l-.4.3-1.2 1-1.5 1.3-1.2 1-1.3 1.4c-.3.4-.6.8-1 1l-1 1.7-.8 1.2-1 1.7c0 .4-.3 1-.5 1.3l-.7 2-.4 1.2c0 .7-.2 1.5-.4 2.2l-.2 1c-.2 1.2-.2 2.4-.2 3.5v187c0 1.2 0 2.3.2 3.5 0 .4 0 .8.2 1 0 .8.3 1.6.5 2.3l.5 1.3.7 2 .6 1.2 1 1.8c0 .4.4.8.7 1.2l1 1.6 1 1 1.3 1.5 1 1c.6.3 1 .8 1.6 1.2l1.2 1c.2 0 .3 0 .4.2l280.5 187c4.4 3 9.5 4.4 14.6 4.4 5.2 0 10.3-1.5 14.7-4.4l280.5-187 .4-.3 1.2-.8 1.5-1.3 1-1c.5-.6 1-1 1.3-1.5l1-1 1-1.7.7-1.2 1-1.8c0-.4.3-.8.5-1.3l.7-2 .4-1.2c0-.7.2-1.5.4-2.2l.2-1 .2-3.5v-187-3.4zM526.4 269L733 406.5l-92.3 61.8-114.3-76.5v-123zm-52.8 0v123l-114.3 76.5-92.3-61.8 206.6-137.7zM246 455.8l66 44.2-66 44v-88zm227.6 275.4L267 593.5l92.3-61.7 114.3 76.5v123zM500 562.4L406.7 500l93.3-62.4 93.3 62.4-93.3 62.4zm26.4 168.8v-123l114.3-76.5 92.3 61.7-206.6 137.8zm227.7-187L688 500l66-44v88z"/></g></svg>