<svg xmlns="http://www.w3.org/2000/svg" viewBox="0 0 1000 1000"><path fill="#363636" d="M491.7 678.2c-103 0-187-83.8-187-187 0-103 84-186.8 187-186.8"/><path fill="#686868" d="M508.3 321.8c103 0 187 83.8 187 187 0 103-84 186.8-187 186.8"/><path fill="#FFF" d="M445 423.6c-3-5-7.4-9-13-12.2-5.4-3.2-11.7-4.7-18.5-4.7-3 0-6 .3-9.2 1-3 .7-5.8 1.7-8.2 3.2-2.3 1.3-4.2 3.2-5.6 5.3-1.4 2.2-2 5-2 8.2 0 5.7 2.5 10 7.6 12.8 5.2 2.8 13 5.3 23.2 7.6 6.5 1.4 12.5 3.3 18 5.4 5.6 2 10.5 4.7 14.6 8 4 3 7.3 6.8 9.6 11.2 2.3 4.4 3.4 9.6 3.4 15.5 0 8-1.5 15-4.6 20.5-3 5.6-7 10-12.2 13.6-5 3.6-11 6.2-17.4 7.7-6.5 1.5-13.2 2.3-20 2.3-10.4 0-20.5-2-30.4-6-9.8-4-18-10-24.5-18.4l19.2-16.3c3.5 5.4 8.6 9.8 15 13.5 6.4 3.6 13.4 5.4 21 5.4 3.5 0 6.8-.3 10-1s6-1.8 8.6-3.3c2.6-1.6 4.6-3.6 6.2-6 1.5-2.6 2.3-5.7 2.3-9.6 0-6.3-3-11-9-14-6-3.2-14.8-6-26.4-8.7-4.6-1.2-9.2-2.5-14-4.2-4.6-1.6-8.8-4-12.7-6.7-4-3-7-6.4-9.4-10.8-2.4-4.3-3.6-9.6-3.6-16 0-7.2 1.5-13.4 4.4-18.7 3-5.3 6.8-9.6 11.6-13 4.8-3.2 10.2-5.7 16.3-7.4 6-1.7 12.4-2.5 19-2.5 9.7 0 19 2 28 5.7 9.2 3.8 16.2 9.4 21.2 16.6L445 423.6z"/><path fill="#363636" d="M642 494.4c12 12.4 19.7 29.4 19.7 48.2 0 19-7.8 35.8-19.7 48.2-12 12.6-29.2 20.2-47.8 20.2-18.8 0-35.7-7.6-48-20.2-12-12.4-19.7-29.4-19.7-48.2 0-19 7.8-35.8 19.7-48.2 12.3-12.4 29.2-20.2 48-20.2 18.6 0 35.7 7.8 47.8 20.2M560 508c-8.6 9-14 21-14 34.6 0 13.7 5.4 25.7 14 34.5 8.8 9 21 14.6 34.2 14.6 13 0 25.2-5.5 34-14.5 8.7-8.7 14.2-21 14.2-34.4 0-13.5-5.5-25.7-14.2-34.5-8.7-9-21-14.4-34-14.4s-25.4 5.6-34.3 14.5"/><path fill="#363636" d="M642.8 496.2c-.5-1-3.4-6.7-1.7-14.4 2.2-9.5 21-20.7 21-20.7s-41 0-67.7 8c-27 8-38.2 16-38.6 16.3l87 11z"/><path fill="#FFF" d="M538.5 543.8c0 30.8 25 56 55.6 56 30.8 0 55.7-25 55.7-56 0-30.8-25-56-55.6-56-30.6.2-55.5 25.2-55.5 56"/><path fill="#686868" d="M569.6 566.7c13.5 13.6 35.4 13.6 49 0 1.6-1.7 1.6-4.4 0-6-1.8-1.8-4.5-1.8-6.2 0-10 10-26.5 10-36.7 0-1.7-1.8-4.4-1.8-6 0-1.8 1.6-1.8 4.3 0 6M608 537c-2 0-4-1.5-4.2-3.6-.4-2.3 1.2-4.6 3.5-5l11.7-2c2.3-.3 4.5 1.3 5 3.6.3 2.3-1.3 4.6-3.6 5l-11.7 2h-.7M565.8 533c0 5 3.8 8.8 8.5 8.8s8.5-4 8.5-8.7c0-4.7-3.8-8.6-8.5-8.6s-8.5 4-8.5 8.7"/><path fill="#363636" d="M604 478c-.5-.3-5.8-3.3-7.4-8.7-2-6.7 14.4-19.5 14.4-19.5s-34 13-48 27-14.4 9.8-14.5 10l55.6-8.7z"/><path fill="#363636" d="M565.2 487.4c-.6 0-5-.3-8.7-3.7-4.6-4.3-1-18.5-1-18.5s-17.2 23-21.5 40.6c-4.3 17.7-5.4 19.5-5.4 19.8l36.6-38.2z"/></svg>