<svg xmlns="http://www.w3.org/2000/svg" viewBox="0 0 1000 1000"><linearGradient id="a" x1="1117.3" x2="1117.3" y1="496.7" y2="222" gradientUnits="userSpaceOnUse" gradientTransform="matrix(.5918 .0017 -.0018 .5918 200.234 292.866)"><stop offset="0" stop-color="#575757"/><stop offset="1" stop-color="#232323"/></linearGradient><path fill="url(#a)" d="M979.7 386.3c-19-22-67.3-10-118.8 26.2 41.2-27.2 78.6-36.2 93.3-19 20 23.3-9.4 86-65.8 140C832 587.2 770 612 750 588.7c-10.6-12.4-8-36.8 6-64.3-.3-.2 0 .4-.2.2-22 38-28.5 71.8-13.8 89 24.3 28.3 97.3.3 163-62.4s99-136.7 74.7-165z"/><g fill="#363636"><path d="M12.4 444H66v6.6H20v19h44v6.4H20v27.2h-7.6v-59zM108.4 444h7.6v52.7h43.6v6.5h-51.2v-59zM225.7 444h9.5l33.3 59.3H260l-7-12.5h-45l-7 12.5h-8.7l33.4-59.2zm4.7 6.6l-18.8 33.6h37.7l-19-33.6zM324.6 450.6h-28.4V444h64.3v6.6H332v52.6h-7.5v-52.6zM400.5 444h7.6v59.3h-7.5V444zM453.7 444h45c16 0 18.7 5.7 18.7 17v4.7c0 8.3-4.5 10.6-10.3 11.2 7.8 1.6 9.7 5.8 9.7 11.2v15h-7v-13c0-9-4.4-10.3-11.3-10.3h-37v23.3h-7.6V444zm44 29.3c8.5 0 12-2.4 12-8.6v-5.4c0-6.6-2.6-8.7-13.8-8.7h-34.7v22.7h36.5zM560.2 465.6c0-15 4.8-22 20-22h32.3c15.2 0 20 7 20 22v16.2c0 15-4.8 22-20 22h-32.3c-15.2 0-20-7-20-22v-16.2zm64.7-3c0-10.4-6-12.7-13.3-12.7H581c-7.3 0-13.2 2.2-13.2 12.5v22.2c0 10.3 6 12.6 13.2 12.6h30.8c7.3 0 13.2-2.3 13.2-12.6v-22.2zM676.4 444h11.3l51.4 52v-52h7.7v59.3h-11.3l-51.4-52v52h-7.6V444zM790.7 484.6h7v4.2c0 5.8 3 8.6 12.5 8.6h23.6c11 0 14.3-2.5 14.3-11 0-7.3-2.7-9.2-12-9.2h-14.5c-23.2 0-30.8-1.5-30.8-17.2 0-13.5 7.6-16.5 23.3-16.5h16.4c18.8 0 23.6 5 23.6 15.6v2h-7c-.3-9.3-1.2-11-21-11h-8.2c-14.6 0-19.8.8-19.8 10.5 0 7 2 9.4 14 9.4h22.4c14.8 0 21 4.4 21 14.4v3.8c0 14.5-11.3 15.6-22.5 15.6h-21.2c-11 0-20.8-2-20.8-15v-4.2z"/></g></svg>