<svg xmlns="http://www.w3.org/2000/svg" viewBox="0 0 1000 1000">
  <path d="M351 3.2s-220.6 5-215.8 201.3 44.2 368 108 466.2S474 1019 660.4 994.7c0 0 93.2-19.7 162-64L596.4 754s-68.7 44.5-108-14.5c-44-58.8-171.7-319-171.7-319S282.3 337 361 297.7L351 3.2zm24.6 0s14.7-4.8 49 10c29.6 14.7 29.6 29.4 29.6 29.4l5 196.3s-10 9.4-19.7 24c-10 10-49 29.4-54 14.7-9.8-10-10-275-10-275z"/>
  <path d="M616 724.7l64-34.4s14.7-4.8 34.3 10c24.5 14.6 142.4 108 142.4 108s19.6 14.6 14.7 39c-5 19.7-19.6 64-19.6 64L616 724.6z"/>
</svg>
