<svg xmlns="http://www.w3.org/2000/svg" viewBox="0 0 1000 1000"><g fill="#686868"><path d="M20.3 591.2h.4c3-10 14.5-25.4 36.6-25.4 31 0 45.2 24.5 45.2 52.8C102.5 649 88 671 57.3 671c-16.6 0-30.7-7-36.6-23.3h-.4v57H13V568h7.3v23.2zM95 618.6c0-23-10.8-46.4-37.8-46.4-26.8 0-36.8 22.5-36.8 46.4 0 24 8.4 46 36.8 46 26.3 0 37.8-21.2 37.8-46zM125 590.4h.7c4-13 20.4-23.7 38.5-23v7.5c-7.8-1-18.8 1-27.8 9.7-7.4 7.6-10.6 14-11.4 29v55h-7.4V568h7.4v22.4zM208 565.8c29.4 0 46 24 46 52.6S237.6 671 208 671c-29.7 0-46.3-24-46.3-52.6s16.6-52.6 46.2-52.6zm0 98.8c25 0 38.6-22 38.6-46.2 0-24-13.5-46.2-38.7-46.2-25.3 0-38.8 22-38.8 46.2 0 24 13.4 46.2 38.7 46.2zM344.7 599.2c-1.4-17.8-16-27-34-27-25.3 0-38.7 22.3-38.7 45.2 0 27.2 12.7 47.2 38.7 47.2 18.8 0 32.5-13 35-31.3h7.4c-3.2 24-20.6 37.8-42.4 37.8-32.7 0-46.2-25.5-46.2-53.5s16.4-51.7 46.2-51.7c21.7 0 39.3 10.6 41.5 33.5h-7.3zM402.8 574.6h-22V645c0 16 7.7 17.7 21.8 17.3v6.5c-15.3 1-30-1.2-29.2-24v-70.2h-18.6V568h18.6V537h7.4V568h22v6.6zM449.6 565.8c29.6 0 46.2 24 46.2 52.6S479.2 671 449.6 671c-29.5 0-46.2-24-46.2-52.6s16.7-52.6 46.2-52.6zm0 98.8c25.2 0 38.7-22 38.7-46.2 0-24-13.5-46.2-38.7-46.2-25.2 0-38.7 22-38.7 46.2 0 24 13.4 46.2 38.6 46.2zM518.2 590.4h.6c4-13 20.4-23.7 38.6-23v7.5c-7.8-1-18.8 1-27.8 9.7-7.4 7.6-10.6 14-11.4 29v55h-7.4V568h7.4v22.4z"/></g><path fill="#B5B5B5" d="M595.8 295.3h391.4v391.4H595.8z"/><path fill="#686868" d="M941.6 558c12.5 0 22.4 3.4 29.7 10.3 1.5 1.4 2.8 3 4 4.4V307.2H607.7v367.6h237v-117h97z"/><path fill="#363636" d="M961.5 596.4c0-13.5-8.3-20.3-24.8-20.3H865v39.3h73c15.7 0 23.5-6.3 23.5-19zM940 661.6s9 0 19.3-3.5c9-3 14.8-9.7 16-11.2v-27.5c-1.3 1.6-2.7 3.2-4.4 4.6-7.7 6.3-18.8 9.5-33.3 9.5H865v41.3h42v-13.2h33z"/><path fill="#686868" d="M975.3 647c-1.2 1.4-7 8.2-16 11.2-10.2 3.3-19.2 3.5-19.2 3.5h-33V675h68.4v-28z"/></svg>