<svg xmlns="http://www.w3.org/2000/svg" viewBox="0 0 1000 1000"><path d="M897 287c.5 9 .7 17.7.7 26.7 0 271-206.4 583.8-583.8 583.8-116 0-224-34-315-92.2 16 1.7 32 2.7 49 2.7 96 0 184-32 255-87-90-1.8-166-61-192-142.6 12 2.4 25 3.7 38 3.7 19 0 37-2 54-7-93-19-164-102-164-201v-3c27.7 15.5 59.3 24.7 93 25.8C77.4 360 41 297.2 41 226c0-37.6 10-72.8 28-103.2 101 124.4 252.4 206 423 214.6-3.6-15-5.4-30.8-5.4-47 0-113.2 92-205 205.2-205 59 0 112 25 149.5 64.8C888 141 932 124 971.6 100.4c-15.5 48-48 88-90.3 113.5 41.5-5 81-16 117.8-33-27 41-62 77-102 106z"/></svg>